# File created by Blade
# Date/Time:  Wed Apr 08 17:31:45 2015
#---------------------------------------------------------
:version 1.10
:name HOM
:units
  mass 1.0
  length 1.000000
  angle deg
:documentation
     Acclaim Skeleton File
:root
   axis xyz
   order TX TY TZ RX RY RZ
   position 0.000000 0.000000 0.000000
   orientation 0 0 0
:bonedata
   begin
      id 1
      name Spine_dum
      direction 0.000000 1.000000 0.000000
      length 5.893853
      axis 0.0 0.0 0.0 xyz
   end
   begin
      id 2
      name LeftUpLeg_dum
      direction 1.000000 0.000000 0.000000
      length 3.697939
      axis 0.0 0.0 0.0 xyz
   end
   begin
      id 3
      name RightUpLeg_dum
      direction -1.000000 0.000000 0.000000
      length 3.697939
      axis 0.0 0.0 0.0 xyz
   end
   begin
      id 4
      name Spine
      direction 0.000000 1.000000 0.000000
      length 0.000000
      axis 0.0 0.0 0.0 xyz
      dof rx ry rz
   end
   begin
      id 5
      name Spine_dum1
      direction 0.000000 1.000000 0.000000
      length 16.447146
      axis 0.0 0.0 0.0 xyz
   end
   begin
      id 6
      name Spine_dum2
      direction 0.000000 1.000000 0.000000
      length 10.900383
      axis 0.0 0.0 0.0 xyz
   end
   begin
      id 7
      name Spine_dum3
      direction 0.000000 1.000000 0.000000
      length 10.900383
      axis 0.0 0.0 0.0 xyz
   end
   begin
      id 8
      name Head
      direction 0.000000 1.000000 0.000000
      length 4.527550
      axis 0.0 0.0 0.0 xyz
      dof rx ry rz
   end
   begin
      id 9
      name LeftShoulder
      direction 1.000000 0.000000 0.000000
      length 8.219464
      axis 0.0 0.0 -90.0 xyz
      dof rx ry rz
   end
   begin
      id 10
      name LeftArm
      direction 1.000000 0.000000 0.000000
      length 11.094937
      axis 0.0 0.0 -90.0 xyz
      dof rx ry rz
   end
   begin
      id 11
      name LeftForeArm
      direction 1.000000 0.000000 0.000000
      length 9.103875
      axis 0.0 0.0 -90.0 xyz
      dof ry rz rx
   end
   begin
      id 12
      name LeftHand
      direction 0.000000 0.000000 0.000000
      length 0.000000
      axis 0.0 0.0 -90.0 xyz
      dof rx ry rz
   end
   begin
      id 13
      name LeftHand_dum1
      direction 0.000000 0.000000 0.000000
      length 0.000000
      axis 0.0 0.0 -90.0 xyz
   end
   begin
      id 14
      name LeftHand_dum2
      direction 1.000000 0.000000 0.000000
      length 3.937000
      axis 0.0 0.0 -90.0 xyz
   end
   begin
      id 15
      name LeftHandThumb1
      direction 0.000000 0.000000 1.000000
      length 3.937000
      axis 0.0 0.0 -90.0 xyz
      dof rx rz ry
   end
   begin
      id 16
      name RightShoulder
      direction -1.000000 0.000000 0.000000
      length 8.219464
      axis 0.0 0.0 90.0 xyz
      dof rx ry rz
   end
   begin
      id 17
      name RightArm
      direction -1.000000 0.000000 0.000000
      length 11.094937
      axis 0.0 0.0 90.0 xyz
      dof rx ry rz
   end
   begin
      id 18
      name RightForeArm
      direction -1.000000 0.000000 0.000000
      length 9.103875
      axis 0.0 0.0 90.0 xyz
      dof ry rz rx
   end
   begin
      id 19
      name RightHand
      direction 0.000000 0.000000 0.000000
      length 0.000000
      axis 0.0 0.0 90.0 xyz
      dof rx ry rz
   end
   begin
      id 20
      name RightHand_dum1
      direction 0.000000 0.000000 0.000000
      length 0.000000
      axis 0.0 0.0 90.0 xyz
   end
   begin
      id 21
      name RightHand_dum2
      direction -1.000000 0.000000 0.000000
      length 3.937000
      axis 0.0 0.0 90.0 xyz
   end
   begin
      id 22
      name RightHandThumb1
      direction 0.000000 0.000000 1.000000
      length 3.937000
      axis 0.0 0.0 90.0 xyz
      dof rx rz ry
   end
   begin
      id 23
      name LeftUpLeg
      direction 0.000000 -1.000000 0.000000
      length 16.181467
      axis 0.0 0.0 0.0 xyz
      dof rx ry rz
   end
   begin
      id 24
      name LeftLeg
      direction 0.000000 -1.000000 0.000000
      length 16.501392
      axis 0.0 0.0 0.0 xyz
      dof rx ry rz
   end
   begin
      id 25
      name LeftFoot
      direction 0.000000 -0.258819 0.965926
      length 6.408245
      axis 15.0 0.0 0.0 xyz
      dof rx ry rz
   end
   begin
      id 26
      name LeftToeBase
      direction 0.000000 0.000000 1.000000
      length 2.952750
      axis 0.0 0.0 0.0 xyz
      dof rx ry rz
   end
   begin
      id 27
      name RightUpLeg
      direction 0.000000 -1.000000 0.000000
      length 16.181467
      axis 0.0 0.0 0.0 xyz
      dof rx ry rz
   end
   begin
      id 28
      name RightLeg
      direction 0.000000 -1.000000 0.000000
      length 16.501392
      axis 0.0 0.0 0.0 xyz
      dof rx ry rz
   end
   begin
      id 29
      name RightFoot
      direction 0.000000 -0.258819 0.965926
      length 6.408245
      axis 15.0 0.0 0.0 xyz
      dof rx ry rz
   end
   begin
      id 30
      name RightToeBase
      direction 0.000000 0.000000 1.000000
      length 2.952750
      axis 0.0 0.0 0.0 xyz
      dof rx ry rz
   end
:hierarchy
   begin
      root Spine_dum LeftUpLeg_dum RightUpLeg_dum
      Spine_dum Spine
      LeftUpLeg_dum LeftUpLeg
      RightUpLeg_dum RightUpLeg
      Spine Spine_dum1 Spine_dum2 Spine_dum3
      Spine_dum1 Head
      Spine_dum2 LeftShoulder
      Spine_dum3 RightShoulder
      LeftShoulder LeftArm
      LeftArm LeftForeArm
      LeftForeArm LeftHand
      LeftHand LeftHand_dum1 LeftHand_dum2
      LeftHand_dum1 LeftHandThumb1
      RightShoulder RightArm
      RightArm RightForeArm
      RightForeArm RightHand
      RightHand RightHand_dum1 RightHand_dum2
      RightHand_dum1 RightHandThumb1
      LeftUpLeg LeftLeg
      LeftLeg LeftFoot
      LeftFoot LeftToeBase
      RightUpLeg RightLeg
      RightLeg RightFoot
      RightFoot RightToeBase
   end

# File created by Blade
# Date/Time:  Wed Apr 08 17:31:39 2015
# Frame Rate: 120.000 fps
#------------------------------------------------------
:FULLY-SPECIFIED
:DEGREES
295
root 9.735812 20.540048 -0.988613 -567.957134 -89.087041 367.114336
Spine 236.770124 0.365422 -0.277775
Head 17.280915 10.447540 0.243062
LeftShoulder 9.569218 -1.033900 39.317738
LeftArm 48.422570 -12.534361 -30.353643
LeftForeArm 15.485749 -0.000000 33.259132
LeftHand -7.704236 -0.000000 -11.137079
LeftHandThumb1 -26.253704 0.000000 33.147579
RightShoulder 5.599827 -26.289474 -45.627505
RightArm 65.571269 29.109458 28.804634
RightForeArm 2.227936 -0.000000 27.385420
RightHand 4.931329 0.000000 4.068059
RightHandThumb1 -24.326973 -0.000000 -32.862282
LeftUpLeg 125.019239 -12.357745 -11.029029
LeftLeg 111.796178 -0.000000 -0.000000
LeftFoot -36.497171 6.813602 -3.722293
LeftToeBase 4.955336 -0.000000 -0.000000
RightUpLeg 128.119648 17.041741 10.962926
RightLeg 113.313023 -0.000000 -0.000000
RightFoot -42.915843 0.580267 5.294881
RightToeBase 7.506975 -0.000000 -0.000000
296
root 9.805517 20.289306 -1.003410 -569.795926 -89.037219 368.132537
Spine 237.159757 0.368720 -0.290129
Head 17.951995 10.368395 0.470188
LeftShoulder 9.805364 -1.117204 39.427085
LeftArm 48.592518 -12.480680 -30.033842
LeftForeArm 16.642222 -0.000000 33.052082
LeftHand -6.973340 -0.000000 -10.706071
LeftHandThumb1 -26.253704 0.000000 33.147579
RightShoulder 5.812709 -26.136316 -45.775332
RightArm 65.716957 29.026796 28.827757
RightForeArm 1.895223 0.000000 27.194829
RightHand 5.121133 0.000000 4.331266
RightHandThumb1 -24.326973 -0.000000 -32.862282
LeftUpLeg 124.926114 -12.219386 -11.216828
LeftLeg 112.633323 -0.000000 -0.000000
LeftFoot -36.459468 6.812663 -3.633274
LeftToeBase 4.981518 -0.000000 -0.000000
RightUpLeg 127.997007 16.823164 11.144863
RightLeg 114.276336 -0.000000 -0.000000
RightFoot -42.902895 0.386945 5.324033
RightToeBase 7.475770 -0.000000 -0.000000
297
root 9.866223 20.045332 -1.011695 -571.078108 -88.936562 368.660129
Spine 237.471336 0.438079 -0.312126
Head 18.628219 10.327445 0.652450
LeftShoulder 10.075646 -1.188327 39.543172
LeftArm 48.737027 -12.450980 -29.780527
LeftForeArm 17.708222 0.000000 32.898077
LeftHand -6.281367 0.000000 -10.408609
LeftHandThumb1 -26.253704 0.000000 33.147579
RightShoulder 6.010807 -26.047675 -45.956491
RightArm 65.871871 28.934697 28.797193
RightForeArm 1.164849 -0.000000 27.027812
RightHand 5.186405 -0.000000 4.318173
RightHandThumb1 -24.326973 -0.000000 -32.862282
LeftUpLeg 124.777917 -12.020667 -11.353081
LeftLeg 113.450174 -0.000000 -0.000000
LeftFoot -36.420044 6.820054 -3.563116
LeftToeBase 5.004844 -0.000000 -0.000000
RightUpLeg 127.854527 16.659169 11.368509
RightLeg 115.217542 -0.000000 -0.000000
RightFoot -42.859311 0.219806 5.326820
RightToeBase 7.408831 -0.000000 -0.000000
298
root 9.923367 19.809617 -1.018546 -570.263790 -88.810337 367.099400
Spine 237.754698 0.578470 -0.307547
Head 19.371326 10.215010 0.824573
LeftShoulder 10.291238 -1.149553 39.565981
LeftArm 48.981147 -12.463013 -29.364669
LeftForeArm 18.263339 0.000000 32.761908
LeftHand -6.107573 -0.000000 -10.324188
LeftHandThumb1 -26.253704 0.000000 33.147579
RightShoulder 6.273173 -25.933505 -46.171576
RightArm 66.020415 28.854237 28.772312
RightForeArm 0.619784 0.000000 26.885968
RightHand 5.224366 -0.000000 4.484323
RightHandThumb1 -24.326973 -0.000000 -32.862282
LeftUpLeg 124.614551 -11.765976 -11.499827
LeftLeg 114.247711 -0.000000 -0.000000
LeftFoot -36.330770 6.815772 -3.528007
LeftToeBase 4.990987 -0.000000 -0.000000
RightUpLeg 127.754404 16.537393 11.577988
RightLeg 116.103687 -0.000000 -0.000000
RightFoot -42.816082 0.107122 5.397161
RightToeBase 7.326018 -0.000000 -0.000000
299
root 9.975765 19.587316 -1.027964 -569.966798 -88.714403 366.183174
Spine 237.939973 0.743192 -0.235307
Head 20.053564 10.274359 0.950980
LeftShoulder 10.483006 -1.088731 39.585551
LeftArm 49.127357 -12.564406 -29.015626
LeftForeArm 18.689426 -0.000000 32.649559
LeftHand -5.860409 -0.000000 -10.343908
LeftHandThumb1 -26.253704 0.000000 33.147579
RightShoulder 6.567809 -25.630318 -46.450098
RightArm 66.168654 28.666445 28.741684
RightForeArm 0.005567 0.000000 26.696873
RightHand 5.191376 0.000000 4.765078
RightHandThumb1 -24.326973 -0.000000 -32.862282
LeftUpLeg 124.382800 -11.511417 -11.616328
LeftLeg 114.989320 -0.000000 -0.000000
LeftFoot -36.267307 6.897392 -3.497174
LeftToeBase 5.018185 -0.000000 -0.000000
RightUpLeg 127.562831 16.419485 11.732643
RightLeg 116.929273 -0.000000 -0.000000
RightFoot -42.782730 -0.036749 5.423476
RightToeBase 7.322061 -0.000000 -0.000000
300
root 10.028929 19.378021 -1.036840 -567.120457 -88.620705 362.720829
Spine 238.128706 1.028774 -0.042093
Head 20.745638 10.582970 1.090001
LeftShoulder 10.522617 -0.882698 39.576614
LeftArm 49.306352 -12.644768 -28.578041
LeftForeArm 18.966456 0.000000 32.445851
LeftHand -5.732652 -0.000000 -10.457608
LeftHandThumb1 -26.253704 0.000000 33.147579
RightShoulder 7.010518 -25.226461 -46.783710
RightArm 66.337635 28.495601 28.657474
RightForeArm -0.503413 -0.000000 26.496721
RightHand 5.165637 -0.000000 4.999840
RightHandThumb1 -24.326973 -0.000000 -32.862282
LeftUpLeg 124.172412 -11.265473 -11.785326
LeftLeg 115.679128 -0.000000 -0.000000
LeftFoot -36.191417 6.964044 -3.426355
LeftToeBase 4.935303 -0.000000 -0.000000
RightUpLeg 127.431166 16.322902 11.827105
RightLeg 117.687104 -0.000000 -0.000000
RightFoot -42.740411 -0.151628 5.509797
RightToeBase 7.275694 -0.000000 -0.000000
301
root 10.080637 19.179144 -1.044851 -567.344931 -88.515971 362.287682
Spine 238.335983 1.119294 -0.031134
Head 21.478140 10.498957 1.332780
LeftShoulder 10.804196 -0.921516 39.643495
LeftArm 49.583330 -12.727487 -28.427540
LeftForeArm 19.371480 -0.000000 32.093752
LeftHand -5.598916 -0.000000 -10.460620
LeftHandThumb1 -26.253704 0.000000 33.147579
RightShoulder 7.252740 -25.032647 -46.911624
RightArm 66.364967 28.313412 28.333660
RightForeArm -0.962325 -0.000000 26.328898
RightHand 5.134927 -0.000000 5.160460
RightHandThumb1 -24.326973 -0.000000 -32.862282
LeftUpLeg 124.061538 -11.028494 -11.889331
LeftLeg 116.308334 -0.000000 -0.000000
LeftFoot -36.130674 7.023820 -3.376287
LeftToeBase 4.971071 -0.000000 -0.000000
RightUpLeg 127.358072 16.216880 12.006894
RightLeg 118.412444 -0.000000 -0.000000
RightFoot -42.691031 -0.241731 5.573550
RightToeBase 7.257073 -0.000000 -0.000000
302
root 10.128483 19.000486 -1.051304 -566.822464 -88.416662 361.245686
Spine 238.440785 1.141280 -0.117509
Head 22.106149 10.355075 1.625502
LeftShoulder 11.139601 -0.908300 39.680946
LeftArm 49.948630 -12.845451 -28.038443
LeftForeArm 19.399861 0.000000 31.614404
LeftHand -5.534048 -0.000000 -10.455878
LeftHandThumb1 -26.253704 0.000000 33.147579
RightShoulder 7.410876 -24.914528 -47.002708
RightArm 66.394796 28.165191 28.108383
RightForeArm -1.398439 0.000000 26.212527
RightHand 5.073698 0.000000 5.368350
RightHandThumb1 -24.326973 -0.000000 -32.862282
LeftUpLeg 123.880032 -10.795320 -11.972300
LeftLeg 116.866747 -0.000000 -0.000000
LeftFoot -36.082339 7.151018 -3.311314
LeftToeBase 5.011018 -0.000000 -0.000000
RightUpLeg 127.218128 16.155257 12.133691
RightLeg 119.050418 -0.000000 -0.000000
RightFoot -42.626965 -0.341373 5.592056
RightToeBase 7.241550 -0.000000 -0.000000
303
root 10.177654 18.837504 -1.059323 -566.539483 -88.359927 360.458941
Spine 238.538709 1.133138 -0.207360
Head 22.754810 10.170271 1.885925
LeftShoulder 11.512580 -1.062315 39.727737
LeftArm 50.234511 -12.966711 -27.937295
LeftForeArm 19.276293 -0.000000 31.119094
LeftHand -5.471823 -0.000000 -10.417020
LeftHandThumb1 -26.253704 0.000000 33.147579
RightShoulder 7.565065 -24.828856 -47.101226
RightArm 66.584477 28.076504 28.074329
RightForeArm -1.819316 -0.000000 26.013432
RightHand 5.220248 -0.000000 5.591590
RightHandThumb1 -24.326973 -0.000000 -32.862282
LeftUpLeg 123.743379 -10.591400 -12.069600
LeftLeg 117.358814 -0.000000 -0.000000
LeftFoot -36.009622 7.261036 -3.264141
LeftToeBase 5.030944 -0.000000 -0.000000
RightUpLeg 127.094245 16.030584 12.228211
RightLeg 119.622901 -0.000000 -0.000000
RightFoot -42.557122 -0.445278 5.624846
RightToeBase 7.202856 -0.000000 -0.000000
304
root 10.223193 18.696799 -1.066709 -565.521255 -88.337000 359.033005
Spine 238.568189 1.076873 -0.316961
Head 23.336766 10.035237 2.190882
LeftShoulder 11.871210 -1.190348 39.796697
LeftArm 50.565824 -13.061989 -27.815630
LeftForeArm 19.354223 -0.000000 30.553417
LeftHand -5.587355 -0.000000 -10.401176
LeftHandThumb1 -26.253704 0.000000 33.147579
RightShoulder 7.703325 -24.734210 -47.130801
RightArm 66.698469 27.971936 27.922384
RightForeArm -2.052234 0.000000 25.854440
RightHand 5.087890 -0.000000 5.584883
RightHandThumb1 -24.326973 -0.000000 -32.862282
LeftUpLeg 123.585816 -10.410559 -12.190521
LeftLeg 117.787757 -0.000000 -0.000000
LeftFoot -35.934728 7.292830 -3.271515
LeftToeBase 5.000075 -0.000000 -0.000000
RightUpLeg 126.948223 15.901312 12.254869
RightLeg 120.100056 -0.000000 -0.000000
RightFoot -42.496504 -0.554944 5.681218
RightToeBase 7.202364 -0.000000 -0.000000
305
root 10.268390 18.556209 -1.072567 -565.870707 -88.329419 358.871251
Spine 238.662440 1.005339 -0.410414
Head 23.934962 9.926332 2.481028
LeftShoulder 12.234391 -1.288757 39.845224
LeftArm 50.913517 -13.128305 -27.766762
LeftForeArm 19.592879 -0.000000 29.952305
LeftHand -5.666704 -0.000000 -10.286799
LeftHandThumb1 -26.253704 0.000000 33.147579
RightShoulder 7.785391 -24.679857 -47.168963
RightArm 67.160288 27.896174 28.250818
RightForeArm -2.527778 -0.000000 25.580259
RightHand 5.198940 -0.000000 5.632824
RightHandThumb1 -24.326973 -0.000000 -32.862282
LeftUpLeg 123.535247 -10.286159 -12.301802
LeftLeg 118.214147 -0.000000 -0.000000
LeftFoot -35.830898 7.335674 -3.225069
LeftToeBase 4.997501 -0.000000 -0.000000
RightUpLeg 126.875776 15.733606 12.333415
RightLeg 120.581251 -0.000000 -0.000000
RightFoot -42.386383 -0.728320 5.657075
RightToeBase 7.123229 -0.000000 -0.000000
306
root 10.311807 18.439817 -1.076436 -566.388438 -88.332145 358.995502
Spine 238.691653 0.961394 -0.469380
Head 24.430639 9.883385 2.693521
LeftShoulder 12.527225 -1.602030 39.924816
LeftArm 51.213457 -13.067494 -28.026198
LeftForeArm 20.100791 -0.000000 29.330198
LeftHand -5.803259 -0.000000 -10.117787
LeftHandThumb1 -26.253704 0.000000 33.147579
RightShoulder 7.865901 -24.595195 -47.230815
RightArm 67.644335 27.822978 28.595060
RightForeArm -2.908617 -0.000000 25.258944
RightHand 5.078433 0.000000 5.742880
RightHandThumb1 -24.326973 -0.000000 -32.862282
LeftUpLeg 123.467614 -10.164311 -12.370063
LeftLeg 118.548614 -0.000000 -0.000000
LeftFoot -35.765718 7.389068 -3.216883
LeftToeBase 4.994801 -0.000000 -0.000000
RightUpLeg 126.765817 15.582657 12.379393
RightLeg 120.972239 -0.000000 -0.000000
RightFoot -42.294480 -0.900970 5.619880
RightToeBase 7.114698 -0.000000 -0.000000
